<svg xmlns="http://www.w3.org/2000/svg" viewBox="0 -10 120 120" width="600" height="600" font-family="Inter, Arial, sans-serif"><circle cx="60" cy="52" r="46" fill="rgba(58,110,165,0.13)"/><circle cx="60" cy="52" r="34" fill="rgba(58,110,165,0.08)"/><g transform="rotate(-9 60 55) translate(6 4) scale(.9)"><g><ellipse cx="60" cy="92" rx="36" ry="4" fill="#000" opacity=".08"></ellipse><path d="M26 34l34-12 34 12-34 12z" fill="#3a6ea5"></path><path d="M26 34l34 12v42L26 76z" fill="#3a6ea5" opacity=".78"></path><path d="M94 34L60 46v42l34-12z" fill="#3a6ea5" opacity=".92"></path><path d="M26 34l34 12 34-12" stroke="#fff" stroke-opacity=".3" fill="none"></path><path d="M65 58l24-8.5v18L65 76z" fill="#fff" opacity=".92"></path><path d="M69 64l16-5.6M69 69l11-3.8" stroke="#3a6ea5" stroke-width="2.4" stroke-linecap="round"></path></g></g><path d="M96 20l2 5 5 2-5 2-2 5-2-5-5-2 5-2z" fill="rgba(58,110,165,0.45)"/></svg>
