<svg xmlns="http://www.w3.org/2000/svg" viewBox="22 8 76 76" width="600" height="600" font-family="Inter, Arial, sans-serif"><g><ellipse cx="60" cy="90" rx="38" ry="4" fill="#000" opacity=".08"></ellipse><g transform="rotate(-18 72 30)"><path d="M70 28c-26 6-42 26-40 52 8-18 24-34 46-44z" fill="#f6c945"></path><path d="M30 80c2-3 3-4 5-6" stroke="#6b4b12" stroke-width="3" stroke-linecap="round"></path></g><g transform="rotate(0 72 30)"><path d="M70 28c-26 6-42 26-40 52 8-18 24-34 46-44z" fill="#f2bd2c"></path><path d="M30 80c2-3 3-4 5-6" stroke="#6b4b12" stroke-width="3" stroke-linecap="round"></path></g><g transform="rotate(18 72 30)"><path d="M70 28c-26 6-42 26-40 52 8-18 24-34 46-44z" fill="#fad35c"></path><path d="M30 80c2-3 3-4 5-6" stroke="#6b4b12" stroke-width="3" stroke-linecap="round"></path></g><rect x="68" y="22" width="10" height="12" rx="3" fill="#6f7d2c"></rect></g></svg>
