<svg xmlns="http://www.w3.org/2000/svg" viewBox="22 8 76 76" width="600" height="600" font-family="Inter, Arial, sans-serif"><g><ellipse cx="60" cy="92" rx="22" ry="3.5" fill="#000" opacity=".08"></ellipse><path d="M60 14v12" stroke="#6b4b12" stroke-width="3" stroke-linecap="round"></path><path d="M62 20c8-6 16-4 18-2-6 4-12 6-18 2z" fill="#4c9a2a"></path><circle cx="48" cy="34" r="8" fill="#88b62f" stroke="#fff" stroke-opacity=".25"></circle><circle cx="60" cy="32" r="8" fill="#9cc63b" stroke="#fff" stroke-opacity=".25"></circle><circle cx="72" cy="34" r="8" fill="#9cc63b" stroke="#fff" stroke-opacity=".25"></circle><circle cx="42" cy="46" r="8" fill="#88b62f" stroke="#fff" stroke-opacity=".25"></circle><circle cx="54" cy="46" r="8" fill="#9cc63b" stroke="#fff" stroke-opacity=".25"></circle><circle cx="66" cy="46" r="8" fill="#9cc63b" stroke="#fff" stroke-opacity=".25"></circle><circle cx="78" cy="46" r="8" fill="#88b62f" stroke="#fff" stroke-opacity=".25"></circle><circle cx="48" cy="58" r="8" fill="#9cc63b" stroke="#fff" stroke-opacity=".25"></circle><circle cx="60" cy="58" r="8" fill="#9cc63b" stroke="#fff" stroke-opacity=".25"></circle><circle cx="72" cy="58" r="8" fill="#88b62f" stroke="#fff" stroke-opacity=".25"></circle><circle cx="54" cy="70" r="8" fill="#9cc63b" stroke="#fff" stroke-opacity=".25"></circle><circle cx="66" cy="70" r="8" fill="#9cc63b" stroke="#fff" stroke-opacity=".25"></circle><circle cx="60" cy="82" r="8" fill="#88b62f" stroke="#fff" stroke-opacity=".25"></circle></g></svg>
