<svg xmlns="http://www.w3.org/2000/svg" viewBox="0 -10 120 120" width="600" height="600" font-family="Inter, Arial, sans-serif"><circle cx="60" cy="52" r="46" fill="rgba(31,107,90,0.13)"/><circle cx="60" cy="52" r="34" fill="rgba(31,107,90,0.08)"/><g transform="rotate(-9 60 55) translate(6 4) scale(.9)"><g><ellipse cx="60" cy="88" rx="40" ry="4" fill="#000" opacity=".08"></ellipse><path d="M18 40l14-12h70l-14 12z" fill="#1f6b5a" opacity=".75"></path><path d="M88 40l14-12v38l-14 14z" fill="#1f6b5a" opacity=".55"></path><rect x="18" y="40" width="70" height="40" rx="3" fill="#1f6b5a"></rect><rect x="18" y="58" width="70" height="10" fill="#fff" opacity=".22"></rect><path d="M30 56c0-9 6-14 15-14 0 9-6 14-15 14z" fill="#fff" opacity=".85"></path><path d="M30 56l10-9" stroke="#1f6b5a" stroke-width="1.6" stroke-linecap="round"></path><text x="66" y="56" text-anchor="middle" font-size="10" font-weight="800" fill="#fff">18 HERB</text><path d="M50 74h30" stroke="#fff" stroke-opacity=".55" stroke-width="2.4" stroke-linecap="round"></path></g></g><path d="M96 20l2 5 5 2-5 2-2 5-2-5-5-2 5-2z" fill="rgba(31,107,90,0.45)"/></svg>
