<svg xmlns="http://www.w3.org/2000/svg" viewBox="0 -10 120 120" width="600" height="600" font-family="Inter, Arial, sans-serif"><g><ellipse cx="60" cy="92" rx="30" ry="4" fill="#000" opacity=".08"></ellipse><g transform="rotate(-34 60 88)"><path d="M60 88C44 70 42 40 60 22c18 18 16 48 0 66z" fill="#3f8e2e" opacity="0.75"></path><path d="M60 86V30" stroke="#d8f0c6" stroke-opacity=".7" stroke-width="1.6"></path></g><g transform="rotate(-14 60 88)"><path d="M60 88C44 70 42 34 60 16c18 24 16 48 0 66z" fill="#3f8e2e" opacity="0.8200000000000001"></path><path d="M60 86V24" stroke="#d8f0c6" stroke-opacity=".7" stroke-width="1.6"></path></g><g transform="rotate(8 60 88)"><path d="M60 88C44 70 42 32 60 14c18 26 16 48 0 66z" fill="#3f8e2e" opacity="0.89"></path><path d="M60 86V22" stroke="#d8f0c6" stroke-opacity=".7" stroke-width="1.6"></path></g><g transform="rotate(28 60 88)"><path d="M60 88C44 70 42 38 60 20c18 20 16 48 0 66z" fill="#3f8e2e" opacity="0.96"></path><path d="M60 86V28" stroke="#d8f0c6" stroke-opacity=".7" stroke-width="1.6"></path></g><rect x="52" y="82" width="16" height="8" rx="3" fill="#c9a36b"></rect></g></svg>
